<?xml version="1.0" standalone="no"?>
<!DOCTYPE svg PUBLIC "-//W3C//DTD SVG 20010904//EN"
 "http://www.w3.org/TR/2001/REC-SVG-20010904/DTD/svg10.dtd">
<svg version="1.0" xmlns="http://www.w3.org/2000/svg"
 width="354.000000pt" height="354.000000pt" viewBox="0 0 354.000000 354.000000"
 preserveAspectRatio="xMidYMid meet">
<metadata>
Created by potrace 1.14, written by Peter Selinger 2001-2017
</metadata>
<g transform="translate(0.000000,354.000000) scale(0.100000,-0.100000)"
fill="#000000" stroke="none">
<path d="M1669 3374 c-2 -28 -6 -55 -13 -89 -3 -16 -13 -75 -22 -130 -9 -55
-23 -111 -32 -124 l-15 -24 -18 24 c-10 13 -21 36 -24 52 -9 37 -21 27 -29
-25 -8 -48 -42 -114 -64 -123 -30 -11 -60 27 -131 164 -40 78 -77 141 -82 141
-6 0 -8 -4 -4 -9 3 -6 8 -63 11 -128 5 -96 3 -125 -10 -157 -14 -34 -19 -37
-43 -31 -14 3 -38 15 -52 26 -29 22 -121 130 -121 141 0 5 -5 8 -11 8 -6 0 -8
-8 -5 -17 3 -10 8 -37 11 -59 3 -23 11 -75 19 -117 10 -62 11 -81 0 -106 -7
-17 -16 -31 -19 -31 -33 0 -136 97 -190 178 -28 43 -45 53 -45 28 0 -8 13 -44
30 -80 54 -122 37 -160 -41 -89 l-42 38 32 -62 c39 -78 50 -153 25 -174 -22
-18 -143 -18 -199 1 -57 19 -203 88 -210 100 -3 6 -12 10 -18 10 -15 -1 78
-87 196 -182 51 -42 87 -79 87 -89 0 -43 -212 -69 -348 -44 -34 7 -65 8 -68 3
-3 -4 3 -8 13 -8 11 0 23 -4 29 -9 5 -4 51 -25 102 -46 138 -57 175 -105 110
-145 -46 -28 -118 -42 -243 -46 -60 -2 -112 -4 -115 -4 -3 -1 36 -16 85 -34
134 -49 205 -86 205 -107 0 -33 -77 -60 -210 -74 -36 -4 -66 -8 -68 -10 -2 -2
51 -24 117 -50 126 -49 205 -94 215 -122 24 -61 -175 -127 -404 -132 -43 -1
-51 -4 -37 -12 9 -6 25 -12 35 -14 29 -7 145 -42 174 -53 63 -25 40 -56 -51
-68 -31 -5 -59 -9 -63 -10 -5 -1 -25 -2 -45 -3 -31 -2 -18 -8 67 -30 127 -34
256 -74 328 -103 53 -21 76 -45 67 -70 -12 -29 -149 -112 -260 -157 -91 -38
-102 -44 -60 -37 29 5 62 10 142 21 21 3 65 10 98 16 117 22 181 13 191 -27 9
-36 -42 -135 -116 -222 -33 -40 -58 -77 -55 -82 3 -5 38 15 79 44 89 64 157
97 211 103 36 5 42 2 52 -20 9 -19 9 -37 -1 -74 -16 -59 -34 -91 -150 -268
-158 -241 -160 -248 -35 -118 234 242 309 295 370 263 31 -17 23 -47 -46 -161
-93 -154 -89 -165 25 -60 55 50 76 65 78 53 1 -10 -16 -71 -38 -136 -22 -65
-39 -121 -36 -123 4 -5 40 49 113 171 52 86 109 141 136 130 17 -6 35 -55 39
-107 l3 -29 25 22 c23 20 25 20 37 4 20 -27 15 -93 -11 -170 -27 -78 -40 -148
-25 -139 5 4 9 12 9 19 0 26 80 172 117 213 48 54 78 61 123 31 37 -25 39 -31
55 -182 8 -69 17 -62 40 34 16 66 39 101 84 132 48 33 116 -3 174 -91 l37 -56
1 40 c1 80 33 166 67 184 66 35 110 12 241 -126 70 -73 101 -100 97 -83 -21
75 -25 101 -23 171 2 67 6 81 26 103 14 15 35 26 50 26 26 0 130 -48 225 -104
42 -26 48 -27 43 -10 -24 82 -47 189 -47 213 0 44 24 52 92 30 32 -10 79 -30
105 -46 29 -17 44 -22 40 -13 -3 8 -23 53 -44 100 -26 60 -38 99 -38 133 0 69
17 79 126 74 l85 -3 -52 73 c-115 161 -94 269 61 304 l54 12 -55 51 c-31 30
-54 60 -54 72 0 47 91 99 275 160 55 18 91 34 80 34 -11 1 -29 3 -40 5 -11 2
-40 6 -65 8 -54 7 -79 15 -102 35 -45 38 -4 84 135 149 211 101 311 153 282
148 -16 -3 -39 -7 -50 -9 -273 -57 -380 -65 -428 -33 -15 9 -27 25 -27 34 0
25 83 100 192 173 54 36 98 68 98 71 0 3 -12 5 -27 2 -67 -9 -201 -4 -238 8
-31 11 -41 20 -43 40 -4 31 51 108 118 166 24 21 58 51 75 66 29 28 30 29 5
23 -70 -16 -265 -46 -307 -48 -96 -2 -123 2 -143 22 -16 16 -18 24 -8 50 17
49 101 133 206 206 53 36 88 63 77 59 -113 -41 -303 -101 -312 -98 -18 6 -16
28 2 43 24 20 14 21 -45 5 -30 -8 -70 -15 -88 -15 -42 0 -82 38 -82 77 0 29
40 121 82 189 55 89 80 136 67 128 -8 -4 -70 -48 -139 -97 -126 -90 -227 -146
-271 -150 -13 -1 -41 2 -61 6 -69 14 -77 62 -38 224 11 46 20 89 20 95 0 10
-53 -59 -114 -149 -34 -50 -74 -80 -81 -61 -9 24 -14 63 -14 118 l-1 55 -56
-95 c-31 -52 -61 -101 -68 -108 -20 -21 -44 -3 -70 52 -24 50 -31 89 -41 206
-10 120 -23 185 -26 134z"/>
</g>
</svg>
